<svg width="36" height="36" viewBox="0 0 36 36" fill="none" xmlns="http://www.w3.org/2000/svg">
<path d="M27.9 12.6C29.0421 12.6003 30.1415 13.0349 30.9751 13.8157C31.8087 14.5965 32.3142 15.6651 32.3892 16.8048L32.4 17.1V27.9C32.3997 29.0422 31.9651 30.1415 31.1843 30.9751C30.4035 31.8088 29.3349 32.3143 28.1952 32.3892L27.9 32.4H17.1C15.9575 32.4002 14.8577 31.9658 14.0237 31.1849C13.1897 30.4041 12.6839 29.3352 12.609 28.1952L12.6 27.9V17.1C12.5998 15.9575 13.0342 14.8577 13.815 14.0237C14.5959 13.1897 15.6647 12.6839 16.8048 12.609L17.1 12.6H27.9ZM22.7916 6.651L22.878 6.9336L23.913 10.8H16.2C14.8226 10.7999 13.4972 11.3262 12.4951 12.2711C11.493 13.216 10.8898 14.5082 10.809 15.8832L10.8 16.2V25.8264C9.88036 25.8069 8.9888 25.5061 8.24538 24.9645C7.50195 24.4228 6.94236 23.6664 6.64197 22.797L6.54837 22.491L3.75297 12.0582C3.45734 10.955 3.59228 9.78063 4.13041 8.77321C4.66855 7.76578 5.56963 7.00068 6.65097 6.633L6.93537 6.5484L17.3664 3.753C18.4209 3.4703 19.5423 3.58065 20.5216 4.06349C21.5008 4.54632 22.2711 5.3687 22.689 6.3774L22.7916 6.651Z" fill="#F6F6F6"/>
</svg>
