<svg width="32" height="32" viewBox="0 0 32 32" fill="none" xmlns="http://www.w3.org/2000/svg">
<path d="M5.33333 28C4.95556 28 4.63911 27.872 4.384 27.616C4.12889 27.36 4.00089 27.0436 4 26.6667V23.4333C4 23.0778 4.06667 22.7387 4.2 22.416C4.33333 22.0933 4.52222 21.8102 4.76667 21.5667L21.6 4.76667C21.8667 4.52222 22.1613 4.33333 22.484 4.2C22.8067 4.06667 23.1453 4 23.5 4C23.8547 4 24.1991 4.06667 24.5333 4.2C24.8676 4.33333 25.1564 4.53333 25.4 4.8L27.2333 6.66667C27.5 6.91111 27.6942 7.2 27.816 7.53333C27.9378 7.86667 27.9991 8.2 28 8.53333C28 8.88889 27.9387 9.228 27.816 9.55067C27.6933 9.87333 27.4991 10.1676 27.2333 10.4333L10.4333 27.2333C10.1889 27.4778 9.90533 27.6667 9.58267 27.8C9.26 27.9333 8.92133 28 8.56667 28H5.33333ZM23.4667 10.4L25.3333 8.53333L23.4667 6.66667L21.6 8.53333L23.4667 10.4Z" fill="#333333"/>
</svg>
