<svg width="24" height="24" viewBox="0 0 24 24" fill="none" xmlns="http://www.w3.org/2000/svg">
<path d="M8.24301 7.34001L1.86301 8.26501L1.75001 8.28801C1.57895 8.33343 1.423 8.42342 1.2981 8.54882C1.1732 8.67421 1.08381 8.8305 1.03907 9.00174C0.994331 9.17298 0.995837 9.35302 1.04344 9.52349C1.09104 9.69395 1.18303 9.84873 1.31001 9.97201L5.93201 14.471L4.84201 20.826L4.82901 20.936C4.81854 21.1129 4.85528 21.2895 4.93546 21.4475C5.01564 21.6056 5.13639 21.7395 5.28535 21.8355C5.4343 21.9316 5.6061 21.9863 5.78316 21.9941C5.96022 22.0019 6.13617 21.9626 6.29301 21.88L11.999 18.88L17.692 21.88L17.792 21.926C17.9571 21.991 18.1365 22.011 18.3118 21.9838C18.4871 21.9566 18.652 21.8832 18.7896 21.7713C18.9272 21.6593 19.0326 21.5128 19.0948 21.3467C19.1571 21.1805 19.1741 21.0008 19.144 20.826L18.053 14.471L22.677 9.97101L22.755 9.88601C22.8664 9.74878 22.9395 9.58447 22.9667 9.40981C22.994 9.23515 22.9744 9.05639 22.9101 8.89174C22.8458 8.7271 22.7389 8.58245 22.6005 8.47253C22.4621 8.36261 22.297 8.29135 22.122 8.26601L15.742 7.34001L12.89 1.56001C12.8075 1.39255 12.6797 1.25153 12.5212 1.15292C12.3627 1.05431 12.1797 1.00204 11.993 1.00204C11.8063 1.00204 11.6233 1.05431 11.4648 1.15292C11.3063 1.25153 11.1785 1.39255 11.096 1.56001L8.24301 7.34001Z" fill="#F8D32C"/>
</svg>
